<?xml version="1.0" encoding="UTF-8"?>
<svg xmlns="http://www.w3.org/2000/svg" viewBox="0 0 371.67 826.07">
  <defs>
    <style>
      .cls-1 {
        fill: none;
      }

      .cls-1, .cls-2 {
        stroke: #231f20;
        stroke-miterlimit: 10;
      }

      .cls-2, .cls-3 {
        fill: #fff;
      }

      .cls-3 {
        stroke-width: 0px;
      }
    </style>
  </defs>
  <g id="Layer_3" data-name="Layer 3">
    <circle class="cls-2" cx="26.01" cy="26.01" r="25.51"/>
    <circle class="cls-2" cx="81.54" cy="26.01" r="25.51"/>
    <circle class="cls-2" cx="138.2" cy="26.01" r="25.51"/>
    <circle class="cls-2" cx="193.73" cy="26.01" r="25.51"/>
    <circle class="cls-2" cx="54.91" cy="74.88" r="25.51"/>
    <circle class="cls-2" cx="110.44" cy="74.88" r="25.51"/>
    <circle class="cls-2" cx="167.1" cy="74.88" r="25.51"/>
    <circle class="cls-2" cx="222.63" cy="74.88" r="25.51"/>
    <circle class="cls-2" cx="249.25" cy="26.01" r="25.51"/>
    <circle class="cls-2" cx="278.15" cy="74.88" r="25.51"/>
  </g>
  <g id="Layer_2" data-name="Layer 2">
    <g>
      <rect class="cls-3" x=".5" y="116.48" width="28.35" height="708.66" rx="9.92" ry="9.92"/>
      <rect class="cls-1" x=".5" y="116.48" width="28.35" height="708.66" rx="9.92" ry="9.92"/>
    </g>
    <g>
      <rect class="cls-3" x="34.91" y="116.48" width="28.35" height="708.66" rx="9.92" ry="9.92"/>
      <rect class="cls-1" x="34.91" y="116.48" width="28.35" height="708.66" rx="9.92" ry="9.92"/>
    </g>
    <path class="cls-2" d="M97.65,253.45c-17.49-8.08-29.62-25.8-29.68-46.35-.06-21.51,9.82-40.1,29.68-47.55l-.17.06v-42.71h28.35v43.91l.17-.08c-17.52,8.08-29.68,25.8-29.68,46.36s12.08,38.16,29.51,46.28c0,0,0,217.44,0,217.44-17.43,8.12-29.51,25.79-29.51,46.28s12.19,38.33,29.75,46.39l-.24-.11v97.44c-17.43,8.12-29.51,25.79-29.51,46.28s12.19,38.33,29.75,46.39l-.24,72.08h-28.35v-72.2c-17.4-8.12-29.45-25.79-29.51-46.27-.06-21.45,9.76-39.99,29.51-47.48,0,0,0-96.24,0-96.24-17.4-8.12-29.45-25.79-29.51-46.27-.06-21.45,9.76-39.99,29.51-47.48,0,0,0-216.6,0-216.6"/>
    <path class="cls-2" d="M139.65,253.45c-17.49-8.08-29.62-25.8-29.68-46.35-.06-21.51,9.82-40.1,29.68-47.55l-.17.06v-42.71h28.35v43.91l.17-.08c-17.52,8.08-29.68,25.8-29.68,46.36s12.08,38.16,29.51,46.28c0,0,0,217.44,0,217.44-17.43,8.12-29.51,25.79-29.51,46.28s12.19,38.33,29.75,46.39l-.24-.11v97.44c-17.43,8.12-29.51,25.79-29.51,46.28s12.19,38.33,29.75,46.39l-.24,72.08h-28.35v-72.2c-17.4-8.12-29.45-25.79-29.51-46.27-.06-21.45,9.76-39.99,29.51-47.48,0,0,0-96.24,0-96.24-17.4-8.12-29.45-25.79-29.51-46.27-.06-21.45,9.76-39.99,29.51-47.48,0,0,0-216.6,0-216.6"/>
    <rect class="cls-2" x="194.86" y="122.51" width="85.04" height="127.56"/>
    <rect class="cls-2" x="286.13" y="256.09" width="85.04" height="127.56"/>
    <rect class="cls-2" x="194.86" y="256.09" width="85.04" height="127.56"/>
    <rect class="cls-2" x="286.13" y="122.51" width="85.04" height="127.56"/>
  </g>
</svg>